# Blender 4.4.3
# www.blender.org
mtllib NU35.mtl
o Cube
v -3.814764 -0.504177 -3.194127
v -3.814764 0.495823 -3.194127
v -3.814764 -0.504177 -4.194127
v -3.814764 0.495823 -4.194127
v 3.849260 -0.504177 -3.194127
v 3.849260 0.495823 -3.194127
v 3.849260 -0.504177 -4.194127
v 3.849260 0.495823 -4.194127
v -0.573475 -0.504177 -4.194127
v -0.573475 0.495823 -4.194127
v -0.573475 -0.504177 -3.194127
v -0.573475 0.495823 -3.194127
v 0.676525 0.495823 -4.194127
v 0.676525 -0.504177 -3.194127
v 0.676525 -0.504177 -4.194127
v 0.676525 0.495823 -3.194127
v -1.602796 0.495823 -0.895498
v -2.294155 0.495823 -1.492756
v -2.294155 -0.504177 -1.492756
v -1.602796 -0.504177 -0.895498
v -0.721892 -0.504177 -1.319654
v -0.721892 0.495823 -1.319654
v 0.283122 -0.504177 -2.331665
v 0.283122 0.495823 -2.331665
v -3.522541 0.495823 1.507517
v -3.522541 -0.504177 1.507517
v -2.485881 -0.504177 0.478336
v -2.485881 0.495823 0.478336
v 2.950877 -0.504177 0.187841
v 3.037737 -0.504177 0.712133
v 2.968786 -0.504177 1.650832
v 2.644168 -0.504177 2.462816
v 2.618227 0.495823 2.516983
v 2.946130 0.495823 1.705063
v 3.025933 0.495823 0.760317
v 2.943704 0.495823 0.234602
v 1.699917 -0.504177 2.027489
v 1.825025 -0.504177 1.626846
v 1.927871 -0.504177 1.080556
v 1.909151 -0.504177 0.535044
v 1.907125 0.495823 0.532865
v 1.926197 0.495823 1.077601
v 1.824243 0.495823 1.627119
v 1.699974 0.495823 2.027276
v 0.278661 -0.504177 3.074808
v 0.784218 -0.504177 2.901796
v 1.073807 -0.504177 2.721356
v 1.462181 -0.504177 2.350924
v 1.462518 0.495823 2.350187
v 1.074916 0.495823 2.720311
v 0.784725 0.495823 2.901442
v 0.279055 0.495823 3.074888
v 0.675705 -0.504177 4.043118
v 1.171925 -0.504177 3.848058
v 1.862135 -0.504177 3.377756
v 2.238621 -0.504177 2.996252
v 2.204157 0.495823 3.060958
v 1.821487 0.495823 3.434703
v 1.115363 0.495823 3.880510
v 0.614476 0.495823 4.069373
v -0.941593 0.495823 3.059508
v -0.414147 0.495823 3.147794
v -0.443341 0.495823 4.236814
v -0.971183 0.495823 4.180943
v -0.416345 -0.504177 4.207575
v -0.944885 -0.504177 4.152179
v -0.943485 -0.504177 3.058955
v -0.415683 -0.504177 3.147803
v 2.586484 -0.504177 -0.660277
v 2.281701 -0.504177 -1.097612
v 1.563418 -0.504177 -1.776232
v 1.109532 -0.504177 -2.050547
v 0.526092 0.495823 -1.117167
v 1.003407 0.495823 -0.881041
v 1.510884 0.495823 -0.388064
v 1.781926 0.495823 0.079377
v 1.109215 0.495823 -2.046219
v 1.561070 0.495823 -1.768958
v 2.270136 0.495823 -1.087591
v 2.571639 0.495823 -0.647811
v 1.782103 -0.504177 0.077969
v 1.510554 -0.504177 -0.389352
v 1.004312 -0.504177 -0.880989
v 0.526986 -0.504177 -1.117127
v -2.343106 0.495823 1.576482
v -2.129167 0.495823 2.087508
v -1.720693 0.495823 2.572343
v -1.290506 0.495823 2.901914
v -1.746938 0.495823 3.885159
v -2.192463 0.495823 3.589257
v -2.919464 0.495823 2.836088
v -3.200113 0.495823 2.387802
v -1.724040 -0.504177 3.863367
v -2.172233 -0.504177 3.572117
v -2.902993 -0.504177 2.830656
v -3.188553 -0.504177 2.385964
v -2.342853 -0.504177 1.572686
v -2.129090 -0.504177 2.084540
v -1.721734 -0.504177 2.570260
v -1.291934 -0.504177 2.900935
vn -1.0000 -0.0000 -0.0000
vn -0.0000 -0.0000 -1.0000
vn 1.0000 -0.0000 -0.0000
vn -0.0000 -0.0000 1.0000
vn -0.0000 -1.0000 -0.0000
vn -0.0000 1.0000 -0.0000
vn -0.6537 -0.0000 0.7567
vn 0.7101 -0.0000 0.7041
vn -0.7031 -0.0000 -0.7111
vn -0.7096 -0.0000 -0.7046
vn -0.6131 -0.0002 -0.7900
vn -0.6129 -0.0002 -0.7902
vn -0.4294 -0.0001 -0.9031
vn -0.4295 -0.0001 -0.9031
vn -0.7045 -0.0000 -0.7097
vn 0.5141 0.0002 -0.8577
vn 0.5139 0.0002 -0.8578
vn 0.2912 -0.0000 -0.9567
vn 0.2915 -0.0000 -0.9566
vn 0.4526 -0.0084 0.8917
vn 0.4604 -0.0086 0.8877
vn 0.6334 -0.0139 0.7737
vn 0.6267 -0.0136 0.7791
vn -0.9218 -0.0008 0.3876
vn -0.9218 -0.0008 0.3877
vn -0.9884 -0.0014 0.1517
vn -0.9884 -0.0014 0.1520
vn -0.9972 -0.0016 -0.0748
vn -0.9972 -0.0016 -0.0752
vn -0.9705 -0.0009 -0.2409
vn 0.9656 0.0009 -0.2601
vn 0.9657 0.0009 -0.2595
vn 0.9916 0.0004 -0.1293
vn -0.7509 -0.0001 -0.6604
vn -0.8925 -0.0002 -0.4510
vn -0.8925 -0.0002 -0.4511
vn 0.8756 0.0196 -0.4827
vn 0.8758 0.0196 -0.4823
vn 0.9615 0.0194 -0.2741
vn 0.9597 0.0195 -0.2804
vn 0.2617 -0.0132 0.9650
vn 0.2531 -0.0138 0.9673
vn 0.0219 -0.0265 0.9994
vn 0.0264 -0.0263 0.9993
vn -0.2157 0.0001 -0.9765
vn 0.0309 0.0001 -0.9995
vn 0.0306 0.0001 -0.9995
vn 0.8722 -0.0046 0.4891
vn 0.8672 -0.0051 0.4980
vn 0.7502 -0.0144 0.6610
vn 0.7543 -0.0142 0.6563
vn -0.4537 -0.0304 0.8906
vn -0.4524 -0.0304 0.8913
vn -0.2286 -0.0322 0.9730
vn -0.2316 -0.0322 0.9723
vn -0.7846 -0.0175 0.6198
vn -0.7841 -0.0175 0.6204
vn -0.6358 -0.0247 0.7715
vn -0.6363 -0.0247 0.7711
vn 0.3243 0.0021 -0.9459
vn 0.4248 0.0039 -0.9053
vn 0.4246 0.0039 -0.9054
vn 0.6083 0.0084 -0.7937
vn 0.6086 0.0084 -0.7935
vn 0.7601 0.0142 -0.6496
vn -0.5770 -0.0005 0.8167
vn -0.5771 -0.0005 0.8167
vn -0.7881 -0.0006 0.6155
vn -0.7882 -0.0006 0.6154
vn -0.3052 -0.0002 0.9523
vn -0.3051 -0.0002 0.9523
vn -0.1601 -0.0001 0.9871
vn -0.8954 -0.0098 0.4452
vn -0.8956 -0.0098 0.4448
vn -0.9369 -0.0057 0.3497
vn 0.8539 0.0014 -0.5204
vn 0.8537 0.0014 -0.5208
vn 0.6912 0.0009 -0.7227
vn 0.6914 0.0009 -0.7225
vn 0.9748 0.0080 0.2230
vn 0.9722 0.0076 0.2338
vn 0.9992 0.0151 -0.0368
vn 0.9989 0.0152 -0.0440
vt 0.123096 -0.000000
vt 0.181275 -0.000000
vt 0.181275 0.058179
vt 0.123096 0.058179
vt 0.123096 0.319476
vt 0.181274 0.319476
vt 0.181274 0.504062
vt 0.123096 0.504062
vt 0.181274 0.562241
vt 0.123096 0.562241
vt 0.623274 0.140781
vt 0.681452 0.140781
vt 0.681452 0.329355
vt 0.623274 0.329355
vt 0.565095 0.261297
vt 0.565095 0.445883
vt 0.506916 0.445883
vt 0.506916 0.261297
vt 0.181275 0.188574
vt 0.181275 0.000000
vt 0.239453 0.000000
vt 0.239453 0.188574
vt 0.181275 0.261297
vt 0.239453 0.261297
vt 0.565095 -0.000000
vt 0.565095 0.188574
vt 0.506916 0.188574
vt 0.506916 -0.000000
vt 0.373185 0.128689
vt 0.407932 0.088467
vt 0.181274 0.246753
vt 0.123096 0.246753
vt 0.623273 0.426071
vt 0.565095 0.426071
vt 0.565095 0.241485
vt 0.623273 0.241485
vt 0.181275 0.445883
vt 0.239453 0.445883
vt 0.623273 0.053153
vt 0.565095 0.053153
vt 0.565095 0.000000
vt 0.623273 0.000000
vt 0.338437 0.088467
vt 0.373185 0.128690
vt 0.623273 0.000000
vt 0.681452 -0.000000
vt 0.000000 0.000000
vt 0.058179 -0.000000
vt 0.058179 0.082978
vt 0.000000 0.082978
vt 0.405612 0.446753
vt 0.392306 0.506286
vt 0.351146 0.505883
vt 0.348407 0.445883
vt 0.570883 0.507138
vt 0.557337 0.447244
vt 0.614811 0.445883
vt 0.611937 0.506731
vt 0.755742 0.531350
vt 0.707486 0.577189
vt 0.689369 0.550398
vt 0.720158 0.489728
vt 0.435640 0.453794
vt 0.481472 0.475820
vt 0.481575 0.558798
vt 0.421702 0.516069
vt 0.122879 0.310012
vt 0.064700 0.309867
vt 0.064720 0.290016
vt 0.122899 0.290110
vt 0.002760 0.913675
vt 0.060923 0.915037
vt 0.058934 1.000000
vt 0.000771 0.998638
vt 0.064846 0.164912
vt 0.123024 0.165069
vt 0.123002 0.187343
vt 0.064823 0.187171
vt 0.063436 0.565114
vt 0.005212 0.562096
vt 0.004549 0.513509
vt 0.062791 0.516534
vt 0.181788 0.651168
vt 0.241896 0.652209
vt 0.246474 0.671577
vt 0.192721 0.698506
vt 0.122763 0.480486
vt 0.064585 0.480561
vt 0.064585 0.452961
vt 0.122764 0.453116
vt 0.317938 0.451715
vt 0.320805 0.514106
vt 0.297062 0.527723
vt 0.266431 0.472953
vt 0.241507 0.491315
vt 0.273970 0.549457
vt 0.255684 0.576344
vt 0.206123 0.533631
vt 0.652369 0.814942
vt 0.630823 0.757471
vt 0.651695 0.749735
vt 0.696398 0.794978
vt 0.775571 0.578202
vt 0.780650 0.616855
vt 0.722136 0.621973
vt 0.718719 0.598871
vt 0.122778 0.421404
vt 0.064599 0.421205
vt 0.064626 0.388864
vt 0.122805 0.388888
vt 0.123096 0.064427
vt 0.064917 0.064209
vt 0.064917 0.000000
vt 0.123096 0.000000
vt 0.721251 0.653185
vt 0.780710 0.648038
vt 0.771438 0.695736
vt 0.716669 0.672500
vt 0.181274 0.620052
vt 0.186433 0.580615
vt 0.244437 0.597972
vt 0.241030 0.621041
vt 0.642294 0.514928
vt 0.645314 0.451480
vt 0.695101 0.471615
vt 0.666260 0.528618
vt 0.064670 0.341092
vt 0.122849 0.341192
vt 0.122827 0.364511
vt 0.064648 0.364445
vt 0.000334 0.253120
vt 0.058523 0.252903
vt 0.059051 0.308615
vt 0.000835 0.306821
vt 0.005604 0.593113
vt 0.063827 0.596255
vt 0.064488 0.658560
vt 0.006275 0.657360
vt 0.702858 0.700351
vt 0.758915 0.724116
vt 0.720512 0.775627
vt 0.677148 0.731797
vt 0.205690 0.726820
vt 0.260272 0.699450
vt 0.285939 0.730846
vt 0.242556 0.777053
vt 0.122931 0.259008
vt 0.064752 0.258929
vt 0.064792 0.218310
vt 0.122971 0.218456
vt 0.003262 0.443353
vt 0.061500 0.445653
vt 0.062266 0.485419
vt 0.004013 0.482330
vt 0.064313 0.737742
vt 0.006116 0.736622
vt 0.006373 0.688278
vt 0.064585 0.689441
vt 0.561357 0.820530
vt 0.562795 0.758004
vt 0.599519 0.761401
vt 0.621919 0.821255
vt 0.062850 0.829748
vt 0.004681 0.828274
vt 0.005746 0.767717
vt 0.063934 0.768856
vt 0.332228 0.756565
vt 0.310835 0.815893
vt 0.266661 0.796356
vt 0.311354 0.748793
vt 0.058179 0.133827
vt 0.000000 0.133763
vt 0.000027 0.164618
vt 0.058207 0.164670
vt 0.058349 0.221882
vt 0.000164 0.222107
vt 0.122781 0.553084
vt 0.064602 0.553061
vt 0.064590 0.512006
vt 0.122768 0.511922
vt 0.064616 0.584044
vt 0.122794 0.584066
vt 0.122833 0.657621
vt 0.064654 0.657651
vt 0.481678 0.476708
vt 0.527345 0.454490
vt 0.541486 0.516922
vt 0.481575 0.559686
vt 0.533002 0.745601
vt 0.531347 0.813842
vt 0.481575 0.791209
vt 0.482283 0.706225
vt 0.400237 0.757243
vt 0.402251 0.820541
vt 0.341365 0.821904
vt 0.363502 0.760557
vt 0.004036 0.859014
vt 0.062199 0.860511
vt 0.432205 0.813503
vt 0.430003 0.744880
vt 0.480867 0.705338
vt 0.481575 0.790321
vt 0.064906 0.096481
vt 0.123085 0.096658
vt 0.123055 0.133541
vt 0.064877 0.133362
vt 0.002225 0.392488
vt 0.060462 0.394720
vt 0.059493 0.339569
vt 0.001271 0.337737
s 1
f 1/1/1 2/2/1 4/3/1 3/4/1
f 15/5/2 13/6/2 8/7/2 7/8/2
f 7/8/3 8/7/3 6/9/3 5/10/3
f 11/11/4 12/12/4 2/13/4 1/14/4
f 15/15/5 7/16/5 5/17/5 14/18/5
f 10/19/6 4/20/6 2/21/6 12/22/6
f 13/23/6 10/19/6 12/22/6 16/24/6
f 3/25/5 9/26/5 11/27/5 1/28/5
f 11/27/5 14/18/5 20/29/5 19/30/5
f 3/4/2 4/3/2 10/31/2 9/32/2
f 5/33/4 6/34/4 16/35/4 14/36/4
f 8/37/6 13/23/6 16/24/6 6/38/6
f 9/26/5 15/15/5 14/18/5 11/27/5
f 9/32/2 10/31/2 13/6/2 15/5/2
f 20/39/7 17/40/7 18/41/7 19/42/7
f 16/24/6 12/22/6 18/43/6 17/44/6
f 14/36/8 16/35/8 17/40/8 20/39/8
f 12/12/9 11/11/9 19/45/9 18/46/9
f 21/47/10 22/48/10 24/49/10 23/50/10
f 78/51/6 74/52/6 75/53/6 79/54/6
f 83/55/5 71/56/5 70/57/5 82/58/5
f 31/59/5 38/60/5 39/61/5 30/62/5
f 77/63/6 24/64/6 22/65/6 73/66/6
f 50/67/11 47/68/12 46/69/13 51/70/14
f 26/71/15 25/72/15 28/73/15 27/74/15
f 100/75/16 88/76/17 61/77/18 67/78/19
f 59/79/20 54/80/21 55/81/22 58/82/23
f 58/83/6 50/84/6 51/85/6 59/86/6
f 76/87/24 81/88/25 40/89/26 41/90/27
f 80/91/6 76/92/6 41/93/6 36/94/6
f 35/95/6 42/96/6 43/97/6 34/98/6
f 93/99/5 100/100/5 67/101/5 66/102/5
f 32/103/5 56/104/5 48/105/5 37/106/5
f 42/107/28 39/108/29 38/109/30 43/110/30
f 85/111/31 97/112/32 27/113/33 28/114/33
f 47/115/5 55/116/5 54/117/5 46/118/5
f 57/119/6 33/120/6 44/121/6 49/122/6
f 81/123/5 69/124/5 29/125/5 40/126/5
f 48/127/34 49/128/34 44/129/35 37/130/36
f 69/131/37 80/132/38 36/133/39 29/134/40
f 53/135/41 60/136/42 63/137/43 65/138/44
f 45/139/5 53/140/5 65/141/5 68/142/5
f 60/143/6 52/144/6 62/145/6 63/146/6
f 52/147/45 45/148/45 68/149/46 62/150/47
f 32/151/48 33/152/49 57/153/50 56/154/51
f 89/155/52 93/156/53 66/157/54 64/158/55
f 95/159/5 98/160/5 99/161/5 94/162/5
f 91/163/56 95/164/57 94/165/58 90/166/59
f 88/167/6 89/168/6 64/169/6 61/170/6
f 23/50/60 24/49/60 77/171/61 72/172/62
f 71/173/63 78/174/64 79/175/65 70/176/65
f 74/177/66 83/178/67 82/179/68 75/180/69
f 84/181/70 73/182/71 22/183/72 21/184/72
f 23/185/5 72/186/5 84/187/5 21/188/5
f 97/189/5 96/190/5 26/191/5 27/192/5
f 86/193/6 91/194/6 90/195/6 87/196/6
f 96/197/73 92/198/74 25/72/75 26/71/75
f 92/199/6 85/200/6 28/201/6 25/202/6
f 98/203/76 86/204/77 87/205/78 99/206/79
f 36/94/6 41/93/6 42/96/6 35/95/6
f 44/121/6 33/120/6 34/98/6 43/97/6
f 32/103/5 37/106/5 38/60/5 31/59/5
f 40/126/5 29/125/5 30/62/5 39/61/5
f 41/90/27 40/89/26 39/108/29 42/107/28
f 37/130/36 44/129/35 43/110/30 38/109/30
f 33/152/49 32/151/48 31/207/80 34/208/81
f 29/134/40 36/133/39 35/209/82 30/210/83
f 60/136/42 53/135/41 54/80/21 59/79/20
f 56/154/51 57/153/50 58/82/23 55/81/22
f 48/105/5 56/104/5 55/116/5 47/115/5
f 53/140/5 45/139/5 46/118/5 54/117/5
f 57/119/6 49/122/6 50/84/6 58/83/6
f 52/144/6 60/143/6 59/86/6 51/85/6
f 49/128/34 48/127/34 47/68/12 50/67/11
f 45/148/45 52/147/45 51/70/14 46/69/13
f 68/142/5 65/141/5 66/102/5 67/101/5
f 62/150/47 68/149/46 67/78/19 61/77/18
f 65/138/44 63/137/43 64/158/55 66/157/54
f 63/146/6 62/145/6 61/170/6 64/169/6
f 72/172/62 77/171/61 78/174/64 71/173/63
f 80/132/38 69/131/37 70/176/65 79/175/65
f 84/187/5 72/186/5 71/56/5 83/55/5
f 69/124/5 81/123/5 82/58/5 70/57/5
f 77/63/6 73/66/6 74/52/6 78/51/6
f 76/92/6 80/91/6 79/54/6 75/53/6
f 73/182/71 84/181/70 83/178/67 74/177/66
f 81/88/25 76/87/24 75/180/69 82/179/68
f 96/190/5 97/189/5 98/160/5 95/159/5
f 100/100/5 93/99/5 94/162/5 99/161/5
f 97/112/32 85/111/31 86/204/77 98/203/76
f 88/76/17 100/75/16 99/206/79 87/205/78
f 92/198/74 96/197/73 95/164/57 91/163/56
f 93/156/53 89/155/52 90/166/59 94/165/58
f 85/200/6 92/199/6 91/194/6 86/193/6
f 89/168/6 88/167/6 87/196/6 90/195/6
f 34/208/81 31/207/80 30/210/83 35/209/82
